<svg xmlns="http://www.w3.org/2000/svg" viewBox="0 0 640 800" role="img" aria-labelledby="title desc">
  <title id="title">Shirt image placeholder</title>
  <desc id="desc">A neutral placeholder for products without a photo.</desc>
  <rect width="640" height="800" fill="#f1eee8"/>
  <path fill="#ded6ca" d="M178 156 86 218l70 126 58-31v329h212V313l58 31 70-126-92-62-84 34c-18 24-38 36-58 36s-40-12-58-36l-84-34Z"/>
  <path fill="none" stroke="#9b6a38" stroke-linecap="round" stroke-linejoin="round" stroke-width="24" d="m178 156 84 34c18 24 38 36 58 36s40-12 58-36l84-34 92 62-70 126-58-31v329H214V313l-58 31-70-126 92-62Z"/>
  <path fill="none" stroke="#9b6a38" stroke-linecap="round" stroke-width="18" d="M258 192c10 46 31 70 62 70s52-24 62-70M254 642h132"/>
  <text x="320" y="724" fill="#6f4722" font-family="Arial, Helvetica, sans-serif" font-size="30" font-weight="700" text-anchor="middle">Image coming soon</text>
</svg>
